<svg xmlns="http://www.w3.org/2000/svg" width="100" height="60" viewBox="0 0 100 60">
  <defs>
    <style>
      .cls-1 {
        fill: #0161cd;
      }

      .cls-1, .cls-2, .cls-3 {
        fill-rule: evenodd;
      }

      .cls-2 {
        fill: #fff;
      }

      .cls-3 {
        fill: #2fa3f7;
      }
    </style>
  </defs>
  <path id="D_copy" data-name="D copy" class="cls-1" d="M15.128,12H0V48H15.128C26.718,48,34,40.17,34,29.9,34,19.525,26.718,12,15.128,12Z"/>
  <path id="_" data-name="&gt;" class="cls-2" d="M14.455,37.7h4.923l7.863-7.695-7.863-7.695H14.455l7.9,7.695Z"/>
  <path id="_2" data-name="/" class="cls-2" d="M6.427,39.231H9.248l4.581-19.271H11.009Z"/>
  <path id="iLi_copy_2" data-name="iLi copy 2" class="cls-1" d="M39.309,48.423h9.712V23.75H39.309V48.423ZM55.583,17.45V48.423H74.657V41.073H65.3V17.45H55.583ZM79.908,48.423H89.62V23.75H79.908V48.423Z"/>
  <path id="iLi_copy" data-name="iLi copy" class="cls-3" d="M44.208,21.781c3.412,0,5.556-2.1,5.556-4.768,0-2.712-2.144-4.856-5.556-4.856-3.456,0-5.6,2.144-5.6,4.856C38.609,19.681,40.752,21.781,44.208,21.781Zm40.6,0c3.412,0,5.556-2.1,5.556-4.768,0-2.712-2.144-4.856-5.556-4.856-3.456,0-5.6,2.144-5.6,4.856C79.208,19.681,81.352,21.781,84.808,21.781Z"/>
</svg>
